<svg width="40" height="40" viewBox="0 0 40 40" fill="none" xmlns="http://www.w3.org/2000/svg">
<circle cx="20" cy="20" r="20" fill="white" fill-opacity="0.97"/>
<circle cx="20" cy="20" r="19.5" stroke="black" stroke-opacity="0.06"/>
<path d="M22.707 13.707C22.8892 13.5184 22.99 13.2658 22.9877 13.0036C22.9854 12.7414 22.8802 12.4906 22.6948 12.3052C22.5094 12.1198 22.2586 12.0146 21.9964 12.0123C21.7342 12.0101 21.4816 12.1109 21.293 12.293L14.646 18.939C14.5066 19.0783 14.396 19.2437 14.3206 19.4258C14.2452 19.6078 14.2063 19.8029 14.2063 20C14.2063 20.1971 14.2452 20.3922 14.3206 20.5743C14.396 20.7563 14.5066 20.9217 14.646 21.061L21.293 27.707C21.4816 27.8892 21.7342 27.99 21.9964 27.9877C22.2586 27.9854 22.5094 27.8802 22.6948 27.6948C22.8802 27.5094 22.9854 27.2586 22.9877 26.9964C22.99 26.7342 22.8892 26.4816 22.707 26.293L16.414 20L22.707 13.707Z" fill="#939CB0"/>
</svg>
