<svg width="50" height="50" viewBox="0 0 50 50" fill="none" xmlns="http://www.w3.org/2000/svg">
<circle cx="25" cy="25" r="24.5" stroke="#D8DCE6"/>
<path d="M37 24C37 17.373 31.627 12 25 12C18.373 12 13 17.373 13 24C13 29.99 17.388 34.954 23.125 35.854V27.47H20.078V24H23.125V21.356C23.125 18.349 24.917 16.688 27.658 16.688C28.97 16.688 30.344 16.922 30.344 16.922V19.875H28.83C27.339 19.875 26.874 20.8 26.874 21.75V24H30.202L29.67 27.469H26.874V35.854C32.612 34.954 37 29.99 37 24Z" fill="#1877F2"/>
<path d="M29.671 27.469L30.203 24H26.875V21.75C26.875 20.801 27.34 19.875 28.831 19.875H30.344V16.922C30.344 16.922 28.97 16.688 27.658 16.688C24.917 16.688 23.125 18.348 23.125 21.356V24H20.078V27.469H23.125V35.854C24.3674 36.0484 25.6326 36.0484 26.875 35.854V27.47H29.671V27.469Z" fill="white"/>
</svg>
