<svg width="50" height="50" viewBox="0 0 50 50" fill="none" xmlns="http://www.w3.org/2000/svg">
<circle cx="25" cy="25" r="24.5" stroke="#D8DCE6"/>
<path d="M18.319 26.504L17.484 29.622L14.43 29.687C13.4882 27.9396 12.9968 25.9851 13 24C13 22.01 13.484 20.134 14.342 18.481L17.061 18.98L18.251 21.682C17.9961 22.4282 17.8667 23.2115 17.868 24C17.868 24.881 18.028 25.725 18.32 26.504H18.319Z" fill="#FBBB00"/>
<path d="M36.79 21.758C37.0879 23.3281 37.0699 24.9419 36.737 26.505C36.16 29.2078 34.6676 31.6284 32.512 33.358L29.088 33.183L28.603 30.158C30.0168 29.3292 31.1031 28.0399 31.68 26.506H25.264V21.758H36.79Z" fill="#518EF8"/>
<path d="M32.512 33.357C30.3838 35.0709 27.7325 36.0038 25 36C20.43 36 16.457 33.446 14.43 29.687L18.319 26.503C18.6839 27.4764 19.2571 28.3583 19.9985 29.0871C20.7399 29.8158 21.6316 30.3737 22.6112 30.7218C23.5908 31.0698 24.6346 31.1996 25.6695 31.102C26.7045 31.0045 27.7057 30.6819 28.603 30.157L32.512 33.357Z" fill="#28B446"/>
<path d="M32.66 14.763L28.772 17.945C27.8613 17.3781 26.8346 17.0238 25.7681 16.9084C24.7016 16.793 23.6228 16.9195 22.6119 17.2785C21.6011 17.6375 20.6841 18.2198 19.9293 18.982C19.1745 19.7442 18.6012 20.6667 18.252 21.681L14.342 18.481C15.3536 16.5274 16.8829 14.8896 18.7626 13.7466C20.6423 12.6035 22.8001 11.9993 25 12C27.7981 11.9958 30.5089 12.9736 32.66 14.763Z" fill="#F14336"/>
</svg>
