<svg width="64" height="64" viewBox="0 0 64 64" fill="none" xmlns="http://www.w3.org/2000/svg">
<path d="M32 64C49.6731 64 64 49.6731 64 32C64 14.3269 49.6731 0 32 0C14.3269 0 0 14.3269 0 32C0 49.6731 14.3269 64 32 64Z" fill="#FC3F1D"/>
<path d="M37.02 52H43.997V12H33.842C23.629 12 18.272 17.228 18.272 24.951C18.272 31.618 21.745 35.377 27.897 39.46L31.635 41.927L26.837 37.903L17.33 52H24.894L35.05 36.846L31.518 34.496C27.25 31.618 25.16 29.386 25.16 24.54C25.16 20.282 28.163 17.404 33.872 17.404H36.992V52H37.022H37.02Z" fill="white"/>
</svg>
