<svg width="86" height="22" viewBox="0 0 86 22" fill="none" xmlns="http://www.w3.org/2000/svg">
<path d="M43.3593 17.12C42.9859 17.5573 42.5486 17.888 42.0473 18.112C41.5566 18.336 41.0179 18.448 40.4313 18.448C39.6633 18.448 38.9593 18.272 38.3193 17.92C37.6793 17.5787 36.9486 16.9813 36.1273 16.128C35.0926 16.0427 34.1646 15.744 33.3433 15.232C32.5219 14.7093 31.8819 14.032 31.4233 13.2C30.9646 12.3573 30.7353 11.424 30.7353 10.4C30.7353 9.312 30.9966 8.33067 31.5193 7.456C32.0419 6.57067 32.7619 5.88267 33.6793 5.392C34.5966 4.89067 35.6259 4.64 36.7673 4.64C37.9086 4.64 38.9379 4.89067 39.8553 5.392C40.7726 5.88267 41.4926 6.56533 42.0153 7.44C42.5379 8.31467 42.7993 9.30133 42.7993 10.4C42.7993 11.2853 42.6233 12.1067 42.2713 12.864C41.9193 13.6107 41.4286 14.2507 40.7993 14.784C40.1699 15.3067 39.4393 15.6853 38.6073 15.92C38.9166 16.2507 39.2206 16.4907 39.5193 16.64C39.8179 16.7893 40.1379 16.864 40.4793 16.864C41.2153 16.864 41.8553 16.5653 42.3993 15.968L43.3593 17.12ZM32.8313 10.4C32.8313 11.1467 33.0019 11.824 33.3433 12.432C33.6846 13.0293 34.1539 13.4987 34.7513 13.84C35.3486 14.1707 36.0206 14.336 36.7673 14.336C37.5139 14.336 38.1859 14.1707 38.7833 13.84C39.3806 13.4987 39.8499 13.0293 40.1913 12.432C40.5326 11.824 40.7033 11.1467 40.7033 10.4C40.7033 9.65333 40.5326 8.98133 40.1913 8.384C39.8499 7.776 39.3806 7.30667 38.7833 6.976C38.1859 6.63467 37.5139 6.464 36.7673 6.464C36.0206 6.464 35.3486 6.63467 34.7513 6.976C34.1539 7.30667 33.6846 7.776 33.3433 8.384C33.0019 8.98133 32.8313 9.65333 32.8313 10.4ZM52.332 16L50.044 12.72C49.948 12.7307 49.804 12.736 49.612 12.736H47.084V16H45.004V4.8H49.612C50.5827 4.8 51.4253 4.96 52.14 5.28C52.8653 5.6 53.42 6.05867 53.804 6.656C54.188 7.25333 54.38 7.96267 54.38 8.784C54.38 9.62667 54.172 10.352 53.756 10.96C53.3507 11.568 52.764 12.0213 51.996 12.32L54.572 16H52.332ZM52.284 8.784C52.284 8.06933 52.0493 7.52 51.58 7.136C51.1107 6.752 50.4227 6.56 49.516 6.56H47.084V11.024H49.516C50.4227 11.024 51.1107 10.832 51.58 10.448C52.0493 10.0533 52.284 9.49867 52.284 8.784ZM60.0991 12.576H58.5471V16H56.5471V7.456H58.5471V10.912H60.1471L62.6751 7.456H64.8191L61.7151 11.568L65.0271 16H62.6751L60.0991 12.576ZM69.9645 16.112C69.1005 16.112 68.3218 15.9253 67.6285 15.552C66.9352 15.1787 66.3912 14.6613 65.9965 14C65.6125 13.328 65.4205 12.5707 65.4205 11.728C65.4205 10.8853 65.6125 10.1333 65.9965 9.472C66.3912 8.81067 66.9352 8.29333 67.6285 7.92C68.3218 7.54667 69.1005 7.36 69.9645 7.36C70.8392 7.36 71.6232 7.54667 72.3165 7.92C73.0098 8.29333 73.5485 8.81067 73.9325 9.472C74.3272 10.1333 74.5245 10.8853 74.5245 11.728C74.5245 12.5707 74.3272 13.328 73.9325 14C73.5485 14.6613 73.0098 15.1787 72.3165 15.552C71.6232 15.9253 70.8392 16.112 69.9645 16.112ZM69.9645 14.4C70.7005 14.4 71.3085 14.1547 71.7885 13.664C72.2685 13.1733 72.5085 12.528 72.5085 11.728C72.5085 10.928 72.2685 10.2827 71.7885 9.792C71.3085 9.30133 70.7005 9.056 69.9645 9.056C69.2285 9.056 68.6205 9.30133 68.1405 9.792C67.6712 10.2827 67.4365 10.928 67.4365 11.728C67.4365 12.528 67.6712 13.1733 68.1405 13.664C68.6205 14.1547 69.2285 14.4 69.9645 14.4ZM85.5265 14.304V17.904H83.6545V16H77.0625V17.904H75.2065V14.304H75.6065C76.1505 14.2827 76.5185 13.936 76.7105 13.264C76.9132 12.5813 77.0465 11.6213 77.1105 10.384L77.2225 7.456H84.2625V14.304H85.5265ZM78.9345 10.528C78.8918 11.5093 78.8118 12.3093 78.6945 12.928C78.5772 13.5467 78.3638 14.0053 78.0545 14.304H82.2625V9.152H78.9825L78.9345 10.528Z" fill="black"/>
<path d="M18.5833 17H14.4167C14.1865 17 14 17.1492 14 17.3333V20.6667C14 20.8508 14.1865 21 14.4167 21H18.5833C18.8135 21 19 20.8508 19 20.6667V17.3333C19 17.1492 18.8135 17 18.5833 17Z" stroke="black" stroke-width="2"/>
<path d="M21.5 12H0.5C0.223858 12 0 12.2239 0 12.5V13.5C0 13.7761 0.223858 14 0.5 14H21.5C21.7761 14 22 13.7761 22 13.5V12.5C22 12.2239 21.7761 12 21.5 12Z" fill="black"/>
<mask id="mask0_30_5" style="mask-type:alpha" maskUnits="userSpaceOnUse" x="2" y="16" width="6" height="6">
<path d="M7.5 16H2.5C2.22386 16 2 16.2239 2 16.5V21.5C2 21.7761 2.22386 22 2.5 22H7.5C7.77614 22 8 21.7761 8 21.5V16.5C8 16.2239 7.77614 16 7.5 16Z" fill="white"/>
</mask>
<g mask="url(#mask0_30_5)">
<path d="M7.5 16H2.5C2.22386 16 2 16.2239 2 16.5V21.5C2 21.7761 2.22386 22 2.5 22H7.5C7.77614 22 8 21.7761 8 21.5V16.5C8 16.2239 7.77614 16 7.5 16Z" stroke="black" stroke-width="4"/>
</g>
<mask id="mask1_30_5" style="mask-type:alpha" maskUnits="userSpaceOnUse" x="2" y="4" width="6" height="6">
<path d="M7.5 4H2.5C2.22386 4 2 4.22386 2 4.5V9.5C2 9.77614 2.22386 10 2.5 10H7.5C7.77614 10 8 9.77614 8 9.5V4.5C8 4.22386 7.77614 4 7.5 4Z" fill="white"/>
</mask>
<g mask="url(#mask1_30_5)">
<path d="M7.5 4H2.5C2.22386 4 2 4.22386 2 4.5V9.5C2 9.77614 2.22386 10 2.5 10H7.5C7.77614 10 8 9.77614 8 9.5V4.5C8 4.22386 7.77614 4 7.5 4Z" stroke="black" stroke-width="4"/>
</g>
<mask id="mask2_30_5" style="mask-type:alpha" maskUnits="userSpaceOnUse" x="14" y="4" width="6" height="6">
<path d="M19.5 4H14.5C14.2239 4 14 4.22386 14 4.5V9.5C14 9.77614 14.2239 10 14.5 10H19.5C19.7761 10 20 9.77614 20 9.5V4.5C20 4.22386 19.7761 4 19.5 4Z" fill="white"/>
</mask>
<g mask="url(#mask2_30_5)">
<path d="M19.5 4H14.5C14.2239 4 14 4.22386 14 4.5V9.5C14 9.77614 14.2239 10 14.5 10H19.5C19.7761 10 20 9.77614 20 9.5V4.5C20 4.22386 19.7761 4 19.5 4Z" stroke="black" stroke-width="4"/>
</g>
</svg>
