<svg width="50" height="50" viewBox="0 0 50 50" fill="none" xmlns="http://www.w3.org/2000/svg">
<circle cx="25" cy="25" r="24.5" stroke="#D8DCE6"/>
<path fill-rule="evenodd" clip-rule="evenodd" d="M20.973 13H28.027C34.467 13 36 14.533 36 20.973V28.027C36 34.467 34.467 36 28.027 36H20.973C14.533 36 13 34.467 13 28.027V20.973C13 14.533 14.533 13 20.973 13Z" fill="#5181B8"/>
<path fill-rule="evenodd" clip-rule="evenodd" d="M31.835 20.924C31.942 20.568 31.835 20.307 31.328 20.307H29.651C29.225 20.307 29.028 20.533 28.921 20.782C28.921 20.782 28.069 22.861 26.861 24.211C26.47 24.601 26.291 24.726 26.079 24.726C25.972 24.726 25.818 24.602 25.818 24.246V20.924C25.818 20.497 25.694 20.307 25.338 20.307H22.703C22.437 20.307 22.277 20.505 22.277 20.693C22.277 21.097 22.881 21.19 22.943 22.327V24.797C22.943 25.339 22.845 25.437 22.632 25.437C22.063 25.437 20.68 23.349 19.86 20.959C19.7 20.495 19.538 20.307 19.11 20.307H17.432C16.953 20.307 16.857 20.533 16.857 20.782C16.857 21.226 17.426 23.429 19.505 26.342C20.891 28.332 22.843 29.412 24.62 29.412C25.686 29.412 25.818 29.172 25.818 28.759V27.255C25.818 26.776 25.918 26.68 26.256 26.68C26.506 26.68 26.932 26.805 27.926 27.764C29.064 28.901 29.251 29.412 29.891 29.412H31.568C32.047 29.412 32.287 29.172 32.148 28.699C31.998 28.228 31.454 27.544 30.734 26.734C30.343 26.272 29.757 25.774 29.579 25.526C29.33 25.206 29.401 25.064 29.579 24.779C29.579 24.779 31.622 21.901 31.835 20.924Z" fill="white"/>
</svg>
